<svg width="120" height="120" viewBox="0 0 120 120" xmlns="http://www.w3.org/2000/svg">
  <!-- Background circle -->
  <circle cx="60" cy="60" r="55" fill="#2D1810" stroke="#8B4513" stroke-width="3"/>
  
  <!-- Steak shape -->
  <ellipse cx="60" cy="55" rx="35" ry="25" fill="#8B4513" transform="rotate(-15 60 55)"/>
  <ellipse cx="60" cy="55" rx="30" ry="20" fill="#A0522D" transform="rotate(-15 60 55)"/>
  <ellipse cx="60" cy="55" rx="25" ry="15" fill="#CD853F" transform="rotate(-15 60 55)"/>
  
  <!-- Grill marks -->
  <line x1="40" y1="45" x2="80" y2="65" stroke="#654321" stroke-width="2"/>
  <line x1="42" y1="55" x2="78" y2="55" stroke="#654321" stroke-width="2"/>
  <line x1="45" y1="65" x2="75" y2="45" stroke="#654321" stroke-width="2"/>
  
  <!-- Blockchain/tech elements -->
  <rect x="25" y="85" width="8" height="8" fill="#FFD700" rx="2"/>
  <rect x="40" y="85" width="8" height="8" fill="#FFD700" rx="2"/>
  <rect x="72" y="85" width="8" height="8" fill="#FFD700" rx="2"/>
  <rect x="87" y="85" width="8" height="8" fill="#FFD700" rx="2"/>
  
  <!-- Connection lines -->
  <line x1="33" y1="89" x2="40" y2="89" stroke="#FFD700" stroke-width="2"/>
  <line x1="48" y1="89" x2="72" y2="89" stroke="#FFD700" stroke-width="2"/>
  <line x1="80" y1="89" x2="87" y2="89" stroke="#FFD700" stroke-width="2"/>
  
  <!-- App name text -->
  <text x="60" y="110" text-anchor="middle" font-family="Arial, sans-serif" font-size="12" font-weight="bold" fill="#FFD700">STEAK ON IT</text>
</svg>